<svg xmlns="http://www.w3.org/2000/svg" viewBox="0 0 410 404">
  <defs>
    <linearGradient id="a" x1="6.26" y1="33.02" x2="235.09" y2="344.74" gradientUnits="userSpaceOnUse">
      <stop offset="0" stop-color="#41d1ff" />
      <stop offset="1" stop-color="#bd34fe" />
    </linearGradient>
    <linearGradient id="b" x1="194.65" y1="8.82" x2="236.25" y2="292.65" gradientUnits="userSpaceOnUse">
      <stop offset="0" stop-color="#ffea83" />
      <stop offset="0.08" stop-color="#ffdd35" />
      <stop offset="1" stop-color="#ffa800" />
    </linearGradient>
  </defs>
  <path
    fill="url(#a)"
    d="M399.641 59.525 215.643 388.545c-5.21 9.454-18.758 9.5-24.054.084L10.484 59.56c-5.992-10.347 3.653-22.487 15.05-19.748l178.746 43.746a12.998 12.998 0 0 0 5.912-.004l174.39-43.732c11.374-2.853 21.07 8.254 15.046 18.61Z"
  />
  <path
    fill="url(#b)"
    d="M292.965 1.574 156.789 32.436a6.6 6.6 0 0 0-5.143 6.67l7.35 170.39a6.6 6.6 0 0 0 8.3 5.993l38.35-9.454c4.227-1.042 8.08 2.507 7.278 6.787l-11.395 60.043c-.89 4.686 3.872 8.452 8.233 6.614l23.65-9.858c3.267-1.362 7.017.474 7.759 3.916l6.33 29.544c1.044 4.876 7.831 5.317 9.385.596l1.313-4.11 45.048-214.99c1.01-4.83-3.3-9.195-8.17-8.05l-39.417 9.108c-3.396.785-6.545-2.045-6.032-5.496l13.798-93.698c.563-3.826-2.63-7.15-6.49-6.288Z"
  />
</svg>
